<?xml version="1.0" encoding="utf-8"?>
<!-- Generator: Adobe Illustrator 20.1.0, SVG Export Plug-In . SVG Version: 6.00 Build 0)  -->
<svg version="1.1" id="Layer_1" xmlns="http://www.w3.org/2000/svg" xmlns:xlink="http://www.w3.org/1999/xlink" x="0px" y="0px"
	 viewBox="0 0 342.1 232.3" style="enable-background:new 0 0 342.1 232.3;" xml:space="preserve">
<style type="text/css">
	.st0{fill:#FA3939;stroke:#000000;stroke-miterlimit:10;}
	.st1{opacity:0.23;fill:#000222;stroke:#000000;stroke-miterlimit:10;enable-background:new    ;}
	.st2{opacity:0.62;fill:#000222;stroke:#000000;stroke-miterlimit:10;enable-background:new    ;}
	.st3{opacity:0.76;fill:#FA3939;stroke:#000000;stroke-miterlimit:10;enable-background:new    ;}
	.st4{opacity:0.68;fill:#FA3939;stroke:#000000;stroke-miterlimit:10;enable-background:new    ;}
	.st5{opacity:0.58;fill:#FA3939;stroke:#000000;stroke-miterlimit:10;enable-background:new    ;}
</style>
<polygon class="st0" points="271.5,112.5 167.5,197.3 226.6,119.3 230.5,48.9 "/>
<polygon class="st1" points="230.5,52.7 188.9,33.4 92.4,26 73.7,0.9 184.2,20.1 234.2,43.7 241.8,62.3 237.1,62.9 "/>
<polygon class="st0" points="230.5,52.7 226.6,123.1 191,33.2 "/>
<polygon class="st2" points="226.6,123.1 189.3,35.8 2.8,23.4 "/>
<polygon class="st0" points="226.6,123.1 191,33.2 13,20.4 "/>
<polygon class="st3" points="230.5,52.7 190.9,33.8 92.4,26 80.9,0.7 186.7,21 234.3,44.5 241.3,62.4 237.1,62.9 "/>
<polygon class="st0" points="282.5,68.6 271.5,116.3 237.1,62.9 287.6,46.5 "/>
<polygon class="st0" points="282.5,68.6 287.6,46.5 339.3,41.6 "/>
<path class="st4" d="M224.5,122.1l-56.6,73.3c2.8,0.3-1,3.2-0.8,2.8l37.8-85.5L224.5,122.1z"/>
<polygon class="st5" points="165.5,199.8 169.8,226.9 213.1,159.8 "/>
</svg>
