<?xml version="1.0" encoding="utf-8"?>
<!-- Generator: Adobe Illustrator 20.1.0, SVG Export Plug-In . SVG Version: 6.00 Build 0)  -->
<svg version="1.1" id="Layer_1" xmlns="http://www.w3.org/2000/svg" xmlns:xlink="http://www.w3.org/1999/xlink" x="0px" y="0px"
	 viewBox="0 0 130.6 136.8" style="enable-background:new 0 0 130.6 136.8;" xml:space="preserve">
<style type="text/css">
	.st0{opacity:0.35;fill:#FA3939;stroke:#000000;stroke-width:0.75;stroke-miterlimit:10;}
	.st1{opacity:0.37;fill:#FA3939;stroke:#000000;stroke-width:0.75;stroke-miterlimit:10;}
	.st2{opacity:0.46;fill:#FA3939;stroke:#000000;stroke-width:0.75;stroke-miterlimit:10;}
	.st3{opacity:0.13;fill:#FA3939;stroke:#000000;stroke-width:0.75;stroke-miterlimit:10;}
</style>
<polygon class="st0" points="47,36.9 53.3,75.5 91.6,116 28.1,74.3 "/>
<polygon class="st0" points="67.7,23.8 53.3,75.5 47,36.9 "/>
<polygon class="st0" points="129.3,15.3 67.7,23.8 53.3,75.5 "/>
<polygon class="st1" points="44,42.9 41.3,42.1 44.2,31.8 69.3,16.6 126,0.6 116.6,16.6 67.6,23.9 47,36.9 "/>
<polygon class="st0" points="15.2,36.8 44,42.9 28.1,74.3 19.3,48.7 "/>
<polygon class="st2" points="1.1,39.5 15.2,36.8 19.3,48.7 "/>
<polygon class="st3" points="47,36.9 53.3,75.5 91.6,116 28.1,74.3 "/>
<polygon class="st0" points="67.7,64.1 91.6,116 53.3,75.5 "/>
<polygon class="st0" points="59.2,94.7 94.6,135.6 92.7,116.9 "/>
</svg>
